<svg width="193" height="39" viewBox="0 0 193 39" fill="none" xmlns="http://www.w3.org/2000/svg">
<path d="M36.48 4.84C37.2267 4.94666 37.7333 5.17333 38 5.52C38.2933 5.86667 38.44 6.32 38.44 6.88C38.44 8.72 37.4533 9.57333 35.48 9.44L34.08 9.32C32.5067 9.18666 30.9333 9.08 29.36 9C27.8133 8.92 26.1867 8.88 24.48 8.88H22.68C22.36 12.8267 22.0267 16.4267 21.68 19.68L28.56 19.56C29.5467 19.56 30.2 19.7333 30.52 20.08C30.8667 20.4267 31.04 20.8933 31.04 21.48C31.04 22.3867 30.7733 23.1067 30.24 23.64C29.7067 24.1467 28.9467 24.4 27.96 24.4H21.12L20.88 26.12C20.32 30.52 19.12 33.6533 17.28 35.52C15.4667 37.3867 12.96 38.32 9.76 38.32C7.94667 38.32 6.28 37.9333 4.76 37.16C3.24 36.36 2.12 35.4 1.4 34.28C1.10667 33.8267 0.96 33.28 0.96 32.64C0.96 32 1.10667 31.44 1.4 30.96C1.72 30.48 2.10667 30.24 2.56 30.24C2.88 30.24 3.18667 30.3467 3.48 30.56C3.8 30.7733 4.2 31.1867 4.68 31.8C5.96 33.48 7.54667 34.32 9.44 34.32C10.96 34.32 12.2267 33.7067 13.24 32.48C14.28 31.2267 14.9467 29.2667 15.24 26.6L15.48 24.4H13.56C12.9467 24.4 12.4133 24.2267 11.96 23.88C11.5333 23.5333 11.32 23.04 11.32 22.4C11.32 21.5733 11.5333 20.9467 11.96 20.52C12.3867 20.0667 13.0133 19.84 13.84 19.84C14.5867 19.84 15.32 19.8267 16.04 19.8C16.36 16.8667 16.7067 13.3067 17.08 9.12C14.2 9.38667 12.1733 9.85333 11 10.52C9.82667 11.1867 9.24 12.1733 9.24 13.48C9.24 14.3867 9.50667 15.2533 10.04 16.08C10.2 16.32 10.28 16.56 10.28 16.8C10.28 17.28 10.0133 17.7067 9.48 18.08C8.94667 18.4267 8.34667 18.6 7.68 18.6C6.96 18.6 6.34667 18.3867 5.84 17.96C5.52 17.6933 5.21333 17.1467 4.92 16.32C4.62667 15.4933 4.48 14.5733 4.48 13.56C4.48 10.2533 6.17333 7.85333 9.56 6.36C12.9733 4.86666 17.9467 4.12 24.48 4.12C29.0133 4.12 33.0133 4.36 36.48 4.84ZM46.5566 29.08C46.9032 29.08 47.1699 29.24 47.3566 29.56C47.5699 29.88 47.6766 30.32 47.6766 30.88C47.6766 31.9467 47.4232 32.7733 46.9166 33.36C45.7699 34.7733 44.5166 35.9333 43.1566 36.84C41.8232 37.7467 40.3032 38.2 38.5966 38.2C36.2499 38.2 34.5032 37.1333 33.3566 35C32.2366 32.8667 31.6766 30.1067 31.6766 26.72C31.6766 23.4667 32.0899 19.76 32.9166 15.6C33.7699 11.44 35.0099 7.86667 36.6366 4.88C38.2899 1.89333 40.2499 0.399998 42.5166 0.399998C43.7966 0.399998 44.7966 0.999998 45.5166 2.2C46.2632 3.37333 46.6366 5.06667 46.6366 7.28C46.6366 10.4533 45.7566 14.1333 43.9966 18.32C42.2366 22.5067 39.8499 26.6533 36.8366 30.76C37.0232 31.8533 37.3299 32.64 37.7566 33.12C38.1832 33.5733 38.7432 33.8 39.4366 33.8C40.5299 33.8 41.4899 33.4933 42.3166 32.88C43.1432 32.24 44.1966 31.16 45.4766 29.64C45.7966 29.2667 46.1566 29.08 46.5566 29.08ZM41.6366 4.36C41.0232 4.36 40.3299 5.46667 39.5566 7.68C38.7832 9.89333 38.1032 12.64 37.5166 15.92C36.9299 19.2 36.6099 22.3467 36.5566 25.36C38.4499 22.24 39.9566 19.12 41.0766 16C42.1966 12.8533 42.7566 9.98666 42.7566 7.4C42.7566 5.37333 42.3832 4.36 41.6366 4.36ZM62.2834 29.08C62.6301 29.08 62.8968 29.24 63.0834 29.56C63.2968 29.88 63.4034 30.32 63.4034 30.88C63.4034 31.9467 63.1501 32.7733 62.6434 33.36C61.6568 34.56 60.2568 35.6667 58.4434 36.68C56.6568 37.6933 54.7368 38.2 52.6834 38.2C49.8834 38.2 47.7101 37.44 46.1634 35.92C44.6168 34.4 43.8434 32.32 43.8434 29.68C43.8434 27.84 44.2301 26.1333 45.0034 24.56C45.7768 22.96 46.8434 21.6933 48.2034 20.76C49.5901 19.8267 51.1501 19.36 52.8834 19.36C54.4301 19.36 55.6701 19.8267 56.6034 20.76C57.5368 21.6667 58.0034 22.9067 58.0034 24.48C58.0034 26.32 57.3368 27.9067 56.0034 29.24C54.6968 30.5467 52.4701 31.5867 49.3234 32.36C49.9901 33.5867 51.2568 34.2 53.1234 34.2C54.3234 34.2 55.6834 33.7867 57.2034 32.96C58.7501 32.1067 60.0834 31 61.2034 29.64C61.5234 29.2667 61.8834 29.08 62.2834 29.08ZM52.2034 23.28C51.2168 23.28 50.3768 23.8533 49.6834 25C49.0168 26.1467 48.6834 27.5333 48.6834 29.16V29.24C50.2568 28.8667 51.4968 28.3067 52.4034 27.56C53.3101 26.8133 53.7634 25.9467 53.7634 24.96C53.7634 24.4533 53.6168 24.0533 53.3234 23.76C53.0568 23.44 52.6834 23.28 52.2034 23.28ZM83.2313 29.08C83.5779 29.08 83.8446 29.24 84.0313 29.56C84.2446 29.88 84.3513 30.32 84.3513 30.88C84.3513 31.9467 84.0979 32.7733 83.5913 33.36C82.4179 34.7467 81.1246 35.9067 79.7113 36.84C78.3246 37.7467 76.7513 38.2 74.9913 38.2C73.6313 38.2 72.4179 37.9467 71.3513 37.44C70.3113 36.9333 69.4846 36.2133 68.8713 35.28C67.3513 37.2 65.5513 38.16 63.4713 38.16C62.0046 38.16 60.8446 37.7333 59.9913 36.88C59.1379 36.0267 58.7113 34.8933 58.7113 33.48C58.7113 32.1467 59.0179 31.0667 59.6313 30.24C60.2446 29.4133 61.1113 29 62.2313 29C63.1913 29 63.6713 29.36 63.6713 30.08C63.6713 30.2667 63.6446 30.6 63.5913 31.08C63.5113 32.04 63.4713 32.5867 63.4713 32.72C63.4713 33.52 63.8179 33.92 64.5113 33.92C65.0179 33.92 65.4979 33.6267 65.9513 33.04C66.4313 32.4267 66.8179 31.6 67.1113 30.56C67.4313 29.52 67.5913 28.3733 67.5913 27.12C67.5913 26.16 67.4713 25.36 67.2313 24.72C66.9913 24.0533 66.6979 23.72 66.3513 23.72C66.0579 23.72 65.8446 23.8 65.7113 23.96C65.5779 24.0933 65.4446 24.3333 65.3113 24.68C65.1513 25.1067 64.9379 25.4533 64.6713 25.72C64.4046 25.96 63.9379 26.08 63.2713 26.08C62.6846 26.08 62.2179 25.88 61.8713 25.48C61.5246 25.0533 61.3513 24.4133 61.3513 23.56C61.3513 22.2 61.7646 21.1333 62.5913 20.36C63.4179 19.5867 64.4846 19.2 65.7913 19.2C66.9113 19.2 67.9246 19.48 68.8313 20.04C69.7379 20.5733 70.4313 21.36 70.9113 22.4C71.7113 21.3333 72.6046 20.5333 73.5913 20C74.6046 19.4667 75.5913 19.2 76.5513 19.2C77.5913 19.2 78.3779 19.44 78.9113 19.92C79.4713 20.4 79.7513 21.1733 79.7513 22.24C79.7513 23.44 79.5246 24.3867 79.0713 25.08C78.6179 25.7467 78.0713 26.08 77.4313 26.08C76.8446 26.08 76.4446 25.96 76.2313 25.72C76.0179 25.48 75.8579 25.1333 75.7513 24.68C75.6979 24.36 75.6179 24.12 75.5113 23.96C75.4046 23.8 75.2179 23.72 74.9513 23.72C74.6313 23.72 74.2846 24.0267 73.9113 24.64C73.5646 25.2267 73.2579 26.0133 72.9913 27C72.7513 27.9867 72.6313 29.0133 72.6313 30.08C72.6313 31.3333 72.9246 32.3067 73.5113 33C74.1246 33.6667 74.9513 34 75.9913 34C77.0313 34 78.0046 33.6533 78.9113 32.96C79.8446 32.24 80.9246 31.1333 82.1513 29.64C82.4713 29.2667 82.8313 29.08 83.2313 29.08ZM86.3631 16.72C85.2431 16.72 84.4031 16.4667 83.8431 15.96C83.2831 15.4267 83.0031 14.6933 83.0031 13.76C83.0031 12.8267 83.3631 12.0533 84.0831 11.44C84.8298 10.8 85.7498 10.48 86.8431 10.48C87.8298 10.48 88.6298 10.72 89.2431 11.2C89.8565 11.68 90.1631 12.36 90.1631 13.24C90.1631 14.3067 89.8165 15.16 89.1231 15.8C88.4298 16.4133 87.5098 16.72 86.3631 16.72ZM86.0431 38.2C84.3098 38.2 83.0431 37.5867 82.2431 36.36C81.4698 35.1333 81.0831 33.5067 81.0831 31.48C81.0831 30.28 81.2298 28.7467 81.5231 26.88C81.8431 24.9867 82.2431 23.2267 82.7231 21.6C82.9631 20.7467 83.2831 20.16 83.6831 19.84C84.0831 19.52 84.7231 19.36 85.6031 19.36C86.9631 19.36 87.6431 19.8133 87.6431 20.72C87.6431 21.3867 87.3898 22.9333 86.8831 25.36C86.2431 28.2933 85.9231 30.28 85.9231 31.32C85.9231 32.12 86.0298 32.7333 86.2431 33.16C86.4565 33.5867 86.8165 33.8 87.3231 33.8C87.8031 33.8 88.4031 33.4667 89.1231 32.8C89.8431 32.1333 90.8031 31.08 92.0031 29.64C92.3231 29.2667 92.6831 29.08 93.0831 29.08C93.4298 29.08 93.6965 29.24 93.8831 29.56C94.0965 29.88 94.2031 30.32 94.2031 30.88C94.2031 31.9467 93.9498 32.7733 93.4431 33.36C90.8031 36.5867 88.3365 38.2 86.0431 38.2ZM98.3269 38.2C97.3402 38.2 96.6335 37.9867 96.2069 37.56C95.7802 37.1067 95.5669 36.2667 95.5669 35.04C95.5669 34.2133 95.6469 33.16 95.8069 31.88C95.9935 30.5733 96.2869 28.7867 96.6869 26.52C97.3802 22.3333 97.9269 18.7067 98.3269 15.64C98.5669 13.72 98.6869 12.12 98.6869 10.84C98.6869 9.64 98.2469 9.04 97.3669 9.04C96.6735 9.04 95.8335 9.4 94.8469 10.12C93.8869 10.8133 92.8202 11.9333 91.6469 13.48C91.2735 13.9867 90.8602 14.24 90.4069 14.24C90.0335 14.24 89.7002 14.0667 89.4069 13.72C89.1402 13.3467 89.0069 12.9333 89.0069 12.48C89.0069 12.0533 89.0869 11.6267 89.2469 11.2C89.4335 10.7467 89.7269 10.24 90.1269 9.68C91.4069 7.89333 92.8335 6.52 94.4069 5.56C95.9802 4.57333 97.5535 4.08 99.1269 4.08C100.594 4.08 101.714 4.54667 102.487 5.48C103.287 6.41333 103.687 7.77333 103.687 9.56C103.687 10.28 103.62 11.1333 103.487 12.12C103.354 13.08 103.234 13.8667 103.127 14.48C103.02 15.0933 102.94 15.52 102.887 15.76C104.407 11.4133 106.114 8.38666 108.007 6.68C109.9 4.94666 111.98 4.08 114.247 4.08C115.98 4.08 117.34 4.69333 118.327 5.92C119.34 7.14666 119.847 8.88 119.847 11.12C119.847 12 119.727 13.0933 119.487 14.4C120.82 10.72 122.38 8.08 124.167 6.48C125.954 4.88 128.007 4.08 130.327 4.08C132.194 4.08 133.62 4.68 134.607 5.88C135.62 7.08 136.127 8.76 136.127 10.92C136.127 12.0933 135.954 13.52 135.607 15.2L133.167 26.64C132.9 27.9733 132.767 29.12 132.767 30.08C132.767 31.2 133.02 32.04 133.527 32.6C134.06 33.16 134.794 33.44 135.727 33.44C136.607 33.44 137.46 33.1467 138.287 32.56C139.14 31.9733 140.14 31 141.287 29.64C141.607 29.2667 141.967 29.08 142.367 29.08C142.714 29.08 142.98 29.24 143.167 29.56C143.38 29.88 143.487 30.32 143.487 30.88C143.487 31.92 143.234 32.7467 142.727 33.36C141.34 35.04 139.967 36.2667 138.607 37.04C137.247 37.8133 135.82 38.2 134.327 38.2C132.06 38.2 130.287 37.5333 129.007 36.2C127.727 34.84 127.087 33.0267 127.087 30.76C127.087 29.1867 127.407 26.9067 128.047 23.92L129.647 16.6C129.7 16.36 129.794 15.9333 129.927 15.32C130.06 14.7067 130.167 14.1333 130.247 13.6C130.327 13.04 130.367 12.4933 130.367 11.96C130.367 11.0267 130.18 10.3333 129.807 9.88C129.46 9.4 128.954 9.16 128.287 9.16C127.034 9.16 125.714 9.97333 124.327 11.6C122.967 13.2 121.66 15.8667 120.407 19.6C119.18 23.3333 118.18 28.1867 117.407 34.16C117.22 35.76 116.887 36.84 116.407 37.4C115.954 37.9333 115.207 38.2 114.167 38.2C113.26 38.2 112.594 37.9867 112.167 37.56C111.767 37.1333 111.567 36.3333 111.567 35.16C111.567 34.0667 111.714 32.64 112.007 30.88C112.3 29.0933 112.674 27 113.127 24.6C114.354 18.1467 114.967 13.9867 114.967 12.12C114.967 11.1067 114.767 10.36 114.367 9.88C113.994 9.4 113.42 9.16 112.647 9.16C111.34 9.16 109.994 9.90667 108.607 11.4C107.22 12.8667 105.86 15.4933 104.527 19.28C103.22 23.04 102.127 28.1333 101.247 34.56C101.06 35.92 100.78 36.8667 100.407 37.4C100.06 37.9333 99.3669 38.2 98.3269 38.2ZM145.504 16.72C144.384 16.72 143.544 16.4667 142.984 15.96C142.424 15.4267 142.144 14.6933 142.144 13.76C142.144 12.8267 142.504 12.0533 143.224 11.44C143.97 10.8 144.89 10.48 145.984 10.48C146.97 10.48 147.77 10.72 148.384 11.2C148.997 11.68 149.304 12.36 149.304 13.24C149.304 14.3067 148.957 15.16 148.264 15.8C147.57 16.4133 146.65 16.72 145.504 16.72ZM145.184 38.2C143.45 38.2 142.184 37.5867 141.384 36.36C140.61 35.1333 140.224 33.5067 140.224 31.48C140.224 30.28 140.37 28.7467 140.664 26.88C140.984 24.9867 141.384 23.2267 141.864 21.6C142.104 20.7467 142.424 20.16 142.824 19.84C143.224 19.52 143.864 19.36 144.744 19.36C146.104 19.36 146.784 19.8133 146.784 20.72C146.784 21.3867 146.53 22.9333 146.024 25.36C145.384 28.2933 145.064 30.28 145.064 31.32C145.064 32.12 145.17 32.7333 145.384 33.16C145.597 33.5867 145.957 33.8 146.464 33.8C146.944 33.8 147.544 33.4667 148.264 32.8C148.984 32.1333 149.944 31.08 151.144 29.64C151.464 29.2667 151.824 29.08 152.224 29.08C152.57 29.08 152.837 29.24 153.024 29.56C153.237 29.88 153.344 30.32 153.344 30.88C153.344 31.9467 153.09 32.7733 152.584 33.36C149.944 36.5867 147.477 38.2 145.184 38.2ZM152.948 38.2C151.934 38.2 151.214 37.6667 150.788 36.6C150.388 35.5333 150.188 33.8267 150.188 31.48C150.188 28.0133 150.681 24.72 151.668 21.6C151.908 20.8267 152.294 20.2667 152.828 19.92C153.388 19.5467 154.161 19.36 155.148 19.36C155.681 19.36 156.054 19.4267 156.268 19.56C156.481 19.6933 156.588 19.9467 156.588 20.32C156.588 20.7467 156.388 21.7067 155.988 23.2C155.721 24.2667 155.508 25.2 155.348 26C155.188 26.8 155.054 27.7867 154.948 28.96C155.828 26.6667 156.814 24.8 157.908 23.36C159.001 21.92 160.068 20.8933 161.108 20.28C162.174 19.6667 163.148 19.36 164.028 19.36C165.761 19.36 166.628 20.2267 166.628 21.96C166.628 23 166.334 24.88 165.748 27.6C165.241 29.92 164.988 31.4533 164.988 32.2C164.988 33.2667 165.374 33.8 166.148 33.8C166.681 33.8 167.308 33.48 168.028 32.84C168.774 32.1733 169.761 31.1067 170.988 29.64C171.308 29.2667 171.668 29.08 172.068 29.08C172.414 29.08 172.681 29.24 172.868 29.56C173.081 29.88 173.188 30.32 173.188 30.88C173.188 31.9467 172.934 32.7733 172.428 33.36C171.281 34.7733 170.041 35.9333 168.708 36.84C167.401 37.7467 165.908 38.2 164.228 38.2C162.868 38.2 161.841 37.8133 161.148 37.04C160.454 36.24 160.108 35.0933 160.108 33.6C160.108 32.8533 160.294 31.52 160.668 29.6C161.014 27.92 161.188 26.76 161.188 26.12C161.188 25.6933 161.041 25.48 160.748 25.48C160.401 25.48 159.908 25.9333 159.268 26.84C158.654 27.72 158.014 28.8933 157.348 30.36C156.708 31.8267 156.188 33.3733 155.788 35C155.494 36.2533 155.148 37.1067 154.748 37.56C154.374 37.9867 153.774 38.2 152.948 38.2ZM184.511 29.08C184.805 31.2667 185.231 33.4267 185.791 35.56C185.898 35.9067 185.951 36.2667 185.951 36.64C185.951 37.84 185.218 38.44 183.751 38.44C182.925 38.44 182.285 38.2133 181.831 37.76C181.405 37.3067 181.005 36.4533 180.631 35.2L180.591 35.04C179.578 36.2933 178.658 37.1333 177.831 37.56C177.031 37.9867 176.098 38.2 175.031 38.2C173.405 38.2 172.058 37.6 170.991 36.4C169.951 35.1733 169.431 33.5867 169.431 31.64C169.431 29.5067 169.885 27.5333 170.791 25.72C171.698 23.9067 172.938 22.4267 174.511 21.28C176.085 20.1067 177.845 19.4 179.791 19.16C180.298 14.12 181.258 9.73333 182.671 6C184.111 2.26666 186.018 0.399998 188.391 0.399998C189.538 0.399998 190.485 0.919998 191.231 1.96C192.005 3 192.391 4.57333 192.391 6.68C192.391 9.61333 191.671 13.04 190.231 16.96C188.791 20.88 186.885 24.92 184.511 29.08ZM187.951 4.32C187.178 4.32 186.445 6.29333 185.751 10.24C185.085 14.1867 184.631 18.48 184.391 23.12C187.351 16.72 188.831 11.52 188.831 7.52C188.831 6.50667 188.738 5.72 188.551 5.16C188.391 4.6 188.191 4.32 187.951 4.32ZM176.431 34.16C176.965 34.16 177.471 33.96 177.951 33.56C178.458 33.16 179.098 32.3867 179.871 31.24C179.605 29.2933 179.471 27.28 179.471 25.2C179.471 24.3733 179.485 23.7333 179.511 23.28C178.045 23.7067 176.831 24.68 175.871 26.2C174.911 27.72 174.431 29.4 174.431 31.24C174.431 33.1867 175.098 34.16 176.431 34.16Z" fill="#8548FB"/>
</svg>
